<svg xmlns="http://www.w3.org/2000/svg" viewBox="0 0 878 390" role="img" aria-label="Inference time on AMD Radeon RX 7900 XT, log scale, milliseconds per forward pass, grouped by model with one bar per framework." font-family="-apple-system, BlinkMacSystemFont, 'Segoe UI', Roboto, 'Helvetica Neue', Arial, sans-serif">
<title>Inference time on AMD Radeon RX 7900 XT by framework and workload</title>
<desc>Grouped bar chart, log scale, milliseconds per forward pass. Dashed placeholders mark framework/model combinations that did not produce a successful result.</desc>
<rect width="878" height="390" fill="#ffffff"/>
<text x="32" y="32" font-size="16" font-weight="500" fill="#111">Inference time, AMD Radeon RX 7900 XT — lower is better</text>
<text x="32" y="54" font-size="13" fill="#6b635a">Milliseconds per forward pass, log scale.</text>
<g transform="translate(32, 74)" font-size="12" fill="#6b635a">
<rect x="0" y="0" width="10" height="10" rx="2" fill="#ee4c2c"/>
<text x="16" y="9">pytorch</text>
<rect x="83" y="0" width="10" height="10" rx="2" fill="#f57c00"/>
<text x="99" y="9">candle</text>
<rect x="159" y="0" width="10" height="10" rx="2" fill="#2ecc71"/>
<text x="175" y="9">meganeura</text>
<rect x="256" y="0" width="10" height="10" rx="2" fill="#0078d4"/>
<text x="272" y="9">onnxruntime</text>
<rect x="366" y="0" width="10" height="10" rx="2" fill="#7b1fa2"/>
<text x="382" y="9">jax</text>
<rect x="422" y="0" width="10" height="10" rx="2" fill="#b71c1c"/>
<text x="438" y="9">burn</text>
<rect x="485" y="0" width="10" height="10" rx="2" fill="#8d6e63"/>
<text x="501" y="9">luminal</text>
<rect x="568" y="0" width="10" height="10" rx="2" fill="#607d8b"/>
<text x="584" y="9">ggml</text>
<rect x="631" y="0" width="10" height="10" rx="2" fill="#00a67e"/>
<text x="647" y="9">max</text>
</g>
<g stroke="#e5e0d4" stroke-width="1">
<line x1="84" y1="340.0" x2="846" y2="340.0"/>
<line x1="84" y1="311.2" x2="846" y2="311.2" opacity="0.55"/>
<line x1="84" y1="282.5" x2="846" y2="282.5"/>
<line x1="84" y1="253.8" x2="846" y2="253.8" opacity="0.55"/>
<line x1="84" y1="225.0" x2="846" y2="225.0"/>
<line x1="84" y1="196.2" x2="846" y2="196.2" opacity="0.55"/>
<line x1="84" y1="167.5" x2="846" y2="167.5"/>
<line x1="84" y1="138.8" x2="846" y2="138.8" opacity="0.55"/>
<line x1="84" y1="110.0" x2="846" y2="110.0"/>
</g>
<g font-size="11" fill="#6b635a" text-anchor="end">
<text x="76" y="344.0">1 ms</text>
<text x="76" y="315.2">3</text>
<text x="76" y="286.5">10 ms</text>
<text x="76" y="257.8">32</text>
<text x="76" y="229.0">100 ms</text>
<text x="76" y="200.2">316</text>
<text x="76" y="171.5">1000 ms</text>
<text x="76" y="142.8">3162</text>
<text x="76" y="114.0">10000 ms</text>
</g>
<line x1="84" y1="110" x2="84" y2="340" stroke="#b4b2a9" stroke-width="1"/>
<rect x="84" y="291.1" width="20" height="48.9" rx="2" fill="#ee4c2c"><title>pytorch — 7.1 ms</title></rect>
<text x="94.0" y="287.1" font-size="10" fill="#111" text-anchor="middle" font-weight="500">7.1</text>
<rect x="106" y="197.9" width="20" height="142.1" rx="2" fill="#f57c00"><title>candle — 295.7 ms</title></rect>
<text x="116.0" y="193.9" font-size="10" fill="#111" text-anchor="middle" font-weight="500">296</text>
<rect x="128" y="293.4" width="20" height="46.6" rx="2" fill="#2ecc71"><title>meganeura — 6.5 ms</title></rect>
<text x="138.0" y="289.4" font-size="10" fill="#111" text-anchor="middle" font-weight="500">6.5</text>
<rect x="150" y="263.3" width="20" height="76.7" rx="2" fill="#0078d4"><title>onnxruntime — 21.6 ms</title></rect>
<text x="160.0" y="259.3" font-size="10" fill="#111" text-anchor="middle" font-weight="500">22</text>
<rect x="172" y="237.5" width="20" height="102.5" rx="2" fill="#7b1fa2"><title>jax — 60.6 ms</title></rect>
<text x="182.0" y="233.5" font-size="10" fill="#111" text-anchor="middle" font-weight="500">61</text>
<text x="138.0" y="362" text-anchor="middle" font-size="12" font-weight="500" fill="#111">ResNet-50</text>
<rect x="220" y="281.7" width="20" height="58.3" rx="2" fill="#ee4c2c"><title>pytorch — 10.3 ms</title></rect>
<text x="230.0" y="277.7" font-size="10" fill="#111" text-anchor="middle" font-weight="500">10</text>
<rect x="242" y="223.7" width="20" height="116.3" rx="2" fill="#f57c00"><title>candle — 105.4 ms</title></rect>
<text x="252.0" y="219.7" font-size="10" fill="#111" text-anchor="middle" font-weight="500">105</text>
<rect x="264" y="290.5" width="20" height="49.5" rx="2" fill="#2ecc71"><title>meganeura — 7.3 ms</title></rect>
<text x="274.0" y="286.5" font-size="10" fill="#111" text-anchor="middle" font-weight="500">7.3</text>
<rect x="286" y="250.5" width="20" height="89.5" rx="2" fill="#0078d4"><title>onnxruntime — 36.1 ms</title></rect>
<text x="296.0" y="246.5" font-size="10" fill="#111" text-anchor="middle" font-weight="500">36</text>
<rect x="308" y="227.4" width="20" height="112.6" rx="2" fill="#7b1fa2"><title>jax — 90.8 ms</title></rect>
<text x="318.0" y="223.4" font-size="10" fill="#111" text-anchor="middle" font-weight="500">91</text>
<rect x="330" y="211.4" width="20" height="128.6" rx="2" fill="#b71c1c"><title>burn — 172.2 ms</title></rect>
<text x="340.0" y="207.4" font-size="10" fill="#111" text-anchor="middle" font-weight="500">172</text>
<rect x="352" y="120.7" width="20" height="219.3" rx="2" fill="#8d6e63"><title>luminal — 6509.6 ms</title></rect>
<text x="362.0" y="116.7" font-size="10" fill="#111" text-anchor="middle" font-weight="500">6510</text>
<rect x="374" y="201.2" width="20" height="138.8" rx="2" fill="#607d8b"><title>ggml — 259.4 ms</title></rect>
<text x="384.0" y="197.2" font-size="10" fill="#111" text-anchor="middle" font-weight="500">259</text>
<rect x="396" y="308.5" width="20" height="31.5" rx="2" fill="#00a67e"><title>max — 3.5 ms</title></rect>
<text x="406.0" y="304.5" font-size="10" fill="#111" text-anchor="middle" font-weight="500">3.5</text>
<text x="318.0" y="362" text-anchor="middle" font-size="12" font-weight="500" fill="#111">SmolLM2-135M</text>
<rect x="444" y="300.8" width="20" height="39.2" rx="2" fill="#ee4c2c"><title>pytorch — 4.8 ms</title></rect>
<text x="454.0" y="296.8" font-size="10" fill="#111" text-anchor="middle" font-weight="500">4.8</text>
<rect x="466" y="299.4" width="20" height="40.6" rx="2" fill="#2ecc71"><title>meganeura — 5.1 ms</title></rect>
<text x="476.0" y="295.4" font-size="10" fill="#111" text-anchor="middle" font-weight="500">5.1</text>
<rect x="488" y="278.1" width="20" height="61.9" rx="2" fill="#0078d4"><title>onnxruntime — 11.9 ms</title></rect>
<text x="498.0" y="274.1" font-size="10" fill="#111" text-anchor="middle" font-weight="500">12</text>
<rect x="510" y="275.2" width="20" height="64.8" rx="2" fill="#7b1fa2"><title>jax — 13.4 ms</title></rect>
<text x="520.0" y="271.2" font-size="10" fill="#111" text-anchor="middle" font-weight="500">13</text>
<rect x="532" y="272.8" width="20" height="67.2" rx="2" fill="#00a67e"><title>max — 14.7 ms</title></rect>
<text x="542.0" y="268.8" font-size="10" fill="#111" text-anchor="middle" font-weight="500">15</text>
<text x="498.0" y="362" text-anchor="middle" font-size="12" font-weight="500" fill="#111">SmolVLA</text>
<rect x="580" y="326.6" width="20" height="13.4" rx="2" fill="#ee4c2c"><title>pytorch — 1.7 ms</title></rect>
<text x="590.0" y="322.6" font-size="10" fill="#111" text-anchor="middle" font-weight="500">1.7</text>
<rect x="602" y="135.9" width="20" height="204.1" rx="2" fill="#f57c00"><title>candle — 3550.0 ms</title></rect>
<text x="612.0" y="131.9" font-size="10" fill="#111" text-anchor="middle" font-weight="500">3550</text>
<rect x="624" y="328.3" width="20" height="11.7" rx="2" fill="#2ecc71"><title>meganeura — 1.6 ms</title></rect>
<text x="634.0" y="324.3" font-size="10" fill="#111" text-anchor="middle" font-weight="500">1.6</text>
<rect x="646" y="311.1" width="20" height="28.9" rx="2" fill="#0078d4"><title>onnxruntime — 3.2 ms</title></rect>
<text x="656.0" y="307.1" font-size="10" fill="#111" text-anchor="middle" font-weight="500">3.2</text>
<rect x="668" y="280.4" width="20" height="59.6" rx="2" fill="#7b1fa2"><title>jax — 10.9 ms</title></rect>
<text x="678.0" y="276.4" font-size="10" fill="#111" text-anchor="middle" font-weight="500">11</text>
<text x="634.0" y="362" text-anchor="middle" font-size="12" font-weight="500" fill="#111">StableDiffusion</text>
<rect x="716" y="278.8" width="20" height="61.2" rx="2" fill="#ee4c2c"><title>pytorch — 11.6 ms</title></rect>
<text x="726.0" y="274.8" font-size="10" fill="#111" text-anchor="middle" font-weight="500">12</text>
<rect x="738" y="210.7" width="20" height="129.3" rx="2" fill="#f57c00"><title>candle — 177.6 ms</title></rect>
<text x="748.0" y="206.7" font-size="10" fill="#111" text-anchor="middle" font-weight="500">178</text>
<rect x="760" y="301.0" width="20" height="39.0" rx="2" fill="#2ecc71"><title>meganeura — 4.8 ms</title></rect>
<text x="770.0" y="297.0" font-size="10" fill="#111" text-anchor="middle" font-weight="500">4.8</text>
<rect x="782" y="245.5" width="20" height="94.5" rx="2" fill="#0078d4"><title>onnxruntime — 43.9 ms</title></rect>
<text x="792.0" y="241.5" font-size="10" fill="#111" text-anchor="middle" font-weight="500">44</text>
<rect x="804" y="217.8" width="20" height="122.2" rx="2" fill="#7b1fa2"><title>jax — 133.6 ms</title></rect>
<text x="814.0" y="213.8" font-size="10" fill="#111" text-anchor="middle" font-weight="500">134</text>
<rect x="826" y="213.7" width="20" height="126.3" rx="2" fill="#607d8b"><title>ggml — 157.3 ms</title></rect>
<text x="836.0" y="209.7" font-size="10" fill="#111" text-anchor="middle" font-weight="500">157</text>
<text x="781.0" y="362" text-anchor="middle" font-size="12" font-weight="500" fill="#111">Whisper-tiny</text>
</svg>